<svg width="24" height="24" viewBox="0 0 24 24" fill="none" xmlns="http://www.w3.org/2000/svg">
<path fill-rule="evenodd" clip-rule="evenodd" d="M7.43293 18.7605C7.58298 18.9139 7.78648 19 7.99868 19H15.9996C16.2118 19 16.4153 18.9139 16.5653 18.7605C16.7153 18.6072 16.7996 18.3992 16.7996 18.1824V15.696C18.2721 14.5695 19.3189 12.9581 19.7634 11.1342C20.2078 9.31017 20.0225 7.38533 19.2389 5.68477C18.4553 3.98422 17.1213 2.61217 15.4623 1.8004C13.8033 0.988632 11.921 0.786892 10.1333 1.22926C8.1833 1.69521 6.48172 2.90612 5.37769 4.61354C4.22471 6.34445 3.77046 8.46356 4.10974 10.5285C4.44903 12.5935 5.55564 14.4448 7.19859 15.696V18.1824C7.19859 18.3992 7.28289 18.6072 7.43293 18.7605ZM13.5993 13.8819V16H10.3989V13.8819L9.60354 13.4092C8.87323 12.9859 8.26585 12.3722 7.84336 11.6307C7.42087 10.8892 7.19838 10.0465 7.19859 9.18852C7.19859 7.88743 7.70436 6.63964 8.60463 5.71963C9.50491 4.79963 10.7259 4.28277 11.9991 4.28277C13.2723 4.28277 14.4933 4.79963 15.3936 5.71963C16.2939 6.63964 16.7996 7.88743 16.7996 9.18852C16.7999 10.0465 16.5774 10.8892 16.1549 11.6307C15.7324 12.3722 15.125 12.9859 14.3947 13.4092L13.5993 13.8819ZM14.6002 20H13.0002H11.4001H9.80003C9.35819 20 9 20.3582 9 20.8C9 21.2419 9.35819 21.6001 9.80003 21.6001H10.6001L10.6001 22.2C10.6001 22.6418 10.9582 23 11.4001 23H13.0002C13.442 23 13.8002 22.6418 13.8002 22.2L13.8002 21.6001H14.6002C15.0421 21.6001 15.4003 21.2419 15.4003 20.8C15.4003 20.3582 15.0421 20 14.6002 20Z" fill="#02272C"/>
</svg>
