<svg width="24" height="24" viewBox="0 0 24 24" fill="none" xmlns="http://www.w3.org/2000/svg">
<path d="M12 1C5.9 1 1 5.9 1 12C1 18.1 5.9 23 12 23C18.1 23 23 18.1 23 12C23 5.9 18.1 1 12 1ZM20 12C20 12.7 19.9 13.4 19.7 14C19.1 12.5 18.1 10.9 16.7 9.3L18.5 7.5C19.5 8.8 20 10.3 20 12ZM6.5 6.5C7.8 6.5 10.1 7.3 12.5 9.4L9.3 12.6C7.1 9.8 6.5 7.5 6.5 6.5ZM14.6 11.5C16.9 14.2 17.5 16.5 17.5 17.5C16.2 17.5 13.9 16.7 11.5 14.6L14.6 11.5ZM16.5 5.4L14.6 7.3C13 5.9 11.4 4.9 9.9 4.3C10.6 4.1 11.2 4 11.9 4C13.7 4 15.2 4.5 16.5 5.4ZM4 12C4 11.3 4.1 10.6 4.3 10C4.9 11.5 5.9 13.1 7.3 14.7L5.5 16.5C4.5 15.2 4 13.7 4 12ZM7.5 18.6L9.4 16.7C11 18.1 12.6 19.1 14.1 19.7C13.4 19.9 12.8 20 12.1 20C10.3 20 8.8 19.5 7.5 18.6Z" fill="#02272C"/>
</svg>
