<svg width="24" height="24" viewBox="0 0 24 24" fill="none" xmlns="http://www.w3.org/2000/svg">
<path d="M2.98736 13.305L11.9996 22L21.0134 13.305C21.637 12.725 22.1371 12.0079 22.4799 11.2024C22.8226 10.3969 23 9.52173 23 8.63626C23 7.75078 22.8226 6.87564 22.4799 6.07012C22.1371 5.26461 21.637 4.54753 21.0134 3.96746L20.9028 3.86117C19.6816 2.70662 18.1212 2.04884 16.494 2.00261C14.8668 1.95639 13.2762 2.52466 11.9997 3.60825C10.6922 2.53579 9.07762 1.98506 7.43297 2.05061C5.78832 2.11615 4.21624 2.79388 2.98659 3.96745C2.36293 4.5475 1.86278 5.2646 1.52003 6.07016C1.17728 6.87572 0.999927 7.75091 1 8.63643C1.00007 9.52194 1.17757 10.3971 1.52045 11.2026C1.86334 12.0081 2.36361 12.7251 2.98736 13.305Z" fill="#EB4962"/>
</svg>
