<svg width="24" height="24" viewBox="0 0 24 24" fill="none" xmlns="http://www.w3.org/2000/svg">
<path d="M11.9996 22L2.98736 13.305C2.36361 12.7251 1.86334 12.0081 1.52045 11.2026C1.17757 10.3971 1.00007 9.52194 1 8.63643C0.999927 7.75091 1.17728 6.87572 1.52003 6.07016C1.86278 5.2646 2.36293 4.5475 2.98659 3.96745C4.21624 2.79388 5.78832 2.11615 7.43297 2.05061C9.07762 1.98506 10.6922 2.53579 11.9997 3.60825C13.2762 2.52466 14.8668 1.95639 16.494 2.00261C18.1212 2.04884 19.6816 2.70662 20.9028 3.86117L21.0134 3.96746C21.637 4.54753 22.1371 5.26461 22.4799 6.07012C22.8226 6.87564 23 7.75078 23 8.63626C23 9.52173 22.8226 10.3969 22.4799 11.2024C22.1371 12.0079 21.637 12.725 21.0134 13.305L11.9996 22ZM7.68692 5.39519C6.77446 5.38255 5.88941 5.72965 5.19966 6.37064C4.88129 6.64366 4.62209 6.98771 4.44003 7.37892C4.25797 7.77014 4.1574 8.19916 4.14531 8.63624C4.15102 9.04752 4.23828 9.45279 4.40128 9.8251C4.56428 10.1974 4.79928 10.5282 5.09067 10.7956L11.9996 17.4622L18.91 10.7956C19.2056 10.5321 19.4435 10.2021 19.6067 9.82881C19.77 9.45557 19.8546 9.04833 19.8545 8.63604C19.8544 8.22374 19.7697 7.81653 19.6063 7.44336C19.4429 7.07018 19.2049 6.74021 18.9092 6.4769L18.7979 6.36892C18.1019 5.73989 17.2211 5.39505 16.3111 5.39536C15.4011 5.39567 14.5204 5.7411 13.8248 6.37061L12.0011 8.13121L10.175 6.37062C9.48502 5.72948 8.59966 5.38238 7.68692 5.39519Z" fill="#02272C"/>
</svg>
