<svg width="24" height="24" viewBox="0 0 24 24" fill="none" xmlns="http://www.w3.org/2000/svg">
<path d="M19.1152 10.5732C19.0913 8.59007 18.337 6.69364 17.0105 5.28171C15.6839 3.86978 13.8882 3.05204 12 3C10.1119 3.05204 8.31625 3.86971 6.98974 5.28152C5.66323 6.69334 4.90888 8.58962 4.88487 10.5727C4.07258 10.7395 3.34072 11.1974 2.81448 11.8682C2.28825 12.539 2.00033 13.3809 2 14.25V17.25C2 18.2446 2.37627 19.1984 3.04605 19.9017C3.71582 20.6049 4.62423 21 5.57143 21H8.42857C8.61801 21 8.79969 20.921 8.93365 20.7803C9.0676 20.6397 9.14286 20.4489 9.14286 20.25V11.25C9.14286 11.0511 9.0676 10.8603 8.93365 10.7197C8.79969 10.579 8.61801 10.5 8.42857 10.5H7.7476C7.78454 9.32483 8.24343 8.20781 9.03216 7.37315C9.8209 6.53849 10.8811 6.04795 12 6C13.1189 6.04795 14.1791 6.53849 14.9678 7.37315C15.7566 8.20781 16.2155 9.32483 16.2524 10.5H15.5714C15.382 10.5 15.2003 10.579 15.0664 10.7197C14.9324 10.8603 14.8571 11.0511 14.8571 11.25V20.25C14.8571 20.4489 14.9324 20.6397 15.0664 20.7803C15.2003 20.921 15.382 21 15.5714 21H18.423C18.8927 21 19.3579 20.9029 19.7919 20.7141C20.2258 20.5254 20.6202 20.2487 20.9523 19.8999C21.2845 19.5512 21.548 19.1371 21.7277 18.6814C21.9075 18.2258 22 17.7374 22 17.2441V14.2559C21.9997 13.3862 21.712 12.5436 21.1858 11.872C20.6597 11.2003 19.9278 10.7413 19.1152 10.5732ZM6.28571 18H5.57143C5.3821 17.9996 5.20064 17.9205 5.06677 17.7799C4.9329 17.6393 4.85752 17.4488 4.85714 17.25V14.25C4.85752 14.0512 4.9329 13.8607 5.06677 13.7201C5.20064 13.5795 5.3821 13.5004 5.57143 13.5H6.28571V18ZM19.1429 17.2441C19.1429 17.3434 19.1242 17.4417 19.0881 17.5334C19.0519 17.6251 18.9989 17.7084 18.932 17.7786C18.8652 17.8488 18.7858 17.9045 18.6985 17.9425C18.6111 17.9805 18.5175 18 18.423 18H17.7143V13.5H18.423C18.5175 13.5 18.6111 13.5195 18.6985 13.5575C18.7858 13.5955 18.8652 13.6512 18.932 13.7214C18.9989 13.7916 19.0519 13.8749 19.0881 13.9666C19.1242 14.0583 19.1429 14.1566 19.1429 14.2559V17.2442V17.2441Z" fill="#03363D"/>
</svg>
