<?xml version="1.0" encoding="UTF-8"?>
<svg width="372px" height="354px" viewBox="0 0 372 354" version="1.1" xmlns="http://www.w3.org/2000/svg" xmlns:xlink="http://www.w3.org/1999/xlink">
    <!-- Generator: Sketch 63.1 (92452) - https://sketch.com -->
    <title>dot-1</title>
    <desc>Created with Sketch.</desc>
    <g id="Page-1" stroke="none" stroke-width="1" fill="none" fill-rule="evenodd">
        <g id="dot-1" transform="translate(0.000000, 0.000000)" fill="#EBD195">
            <path d="M51.393,284.16 C29.715,258.629 15.098,235.265 6.723,208.56 C-2.734,178.775 -1.23,149.593 9.897,120.726 C19.1,96.941 32.635,75.998 49.901,57.24 C67.383,38.04 87.585,22.72 111.858,12.669 C132.088,4.477 153.2,0.909 175.026,0.793 C208.542,0.54 241.242,5.362 273.211,15.846 C293.879,22.643 313.176,31.873 329.66,46.114 C345.542,59.698 356.072,76.691 362.57,96.277 C368.99,115.643 371.423,135.619 371.714,155.826 C371.938,186.763 368.457,217.352 360.006,247.16 C354.024,268.503 345.36,288.538 331.705,306.321 C318.775,322.999 302.219,334.625 282.497,342.153 C261.157,350.35 238.854,353.336 216.067,353.531 C189.801,353.672 164.001,350.209 138.8,342.114 C113.82,333.944 91.44,321.204 71.727,303.745 C63.329,296.001 55.593,288.032 51.393,284.16 Z" id="Path"></path>
        </g>
    </g>
</svg>