<?xml version="1.0" encoding="UTF-8"?>
<svg width="303px" height="308px" viewBox="0 0 303 308" version="1.1" xmlns="http://www.w3.org/2000/svg" xmlns:xlink="http://www.w3.org/1999/xlink">
    <!-- Generator: Sketch 63.1 (92452) - https://sketch.com -->
    <title>dot-6</title>
    <desc>Created with Sketch.</desc>
    <g id="Page-1" stroke="none" stroke-width="1" fill="none" fill-rule="evenodd">
        <g id="dot-6" fill="#D8BE97" fill-rule="nonzero">
            <path d="M301.887,155.715 C303.481,183.065 301.529,205.523 293.855,227.092 C285.371,251.204 270.024,269.528 248.545,282.907 C230.825,293.915 211.674,300.933 191.161,304.687 C170.289,308.624 149.551,308.687 128.747,303.303 C111.499,298.695 95.952,290.633 81.636,279.964 C59.617,263.63 40.629,244.382 24.906,221.796 C14.75,207.181 6.687,191.652 2.929,174.233 C-0.759,157.541 0.726,141.257 6.123,125.263 C11.462,109.451 19.705,95.204 29.463,81.86 C44.545,61.541 61.876,43.272 82.069,27.96 C96.483,16.962 112.006,8.139 129.68,3.244 C146.336,-1.286 162.874,-0.73 179.463,4.061 C197.439,9.211 213.479,18.241 228.461,29.331 C245.688,42.169 260.838,57.132 273.315,74.826 C285.612,92.461 293.961,111.802 298.245,132.91 C299.919,142.104 301.05,151.118 301.887,155.715 Z" id="Path"></path>
        </g>
    </g>
</svg>