<svg width="474" height="205" xmlns="http://www.w3.org/2000/svg"><g stroke="#262627" fill="none" fill-rule="evenodd"><path d="M472.2 1.9l1.7.3-1.7-.3-1.7-.2-1.7-.2-1.8-.1-1.7-.1-1.7-.1-1.7-.1h-3.3l-1.7.1h-1.7l-1.7.1-1.6.2-1.7.1-1.6.2-1.7.2-1.6.3-1.7.3-1.6.3-1.6.3-1.6.4-1.6.4-1.6.4-1.6.5-1.5.5-1.6.5-1.6.5-1.5.6-1.5.6-1.5.6-1.5.7-1.5.7-1.5.7-1.5.7-1.4.8-1.5.7-1.4.9-1.4.8-1.4.9-1.4.9-1.4.9-1.3.9-1.3 1-1.4 1-1.3 1-1.3 1.1-1.2 1-1.3 1.1-1.2 1.1-1.2 1.2-1.2 1.2-1.2 1.2-1.1 1.2-1.2 1.2-1.1 1.3-1.1 1.3-1.1 1.3-1 1.3-1 1.4-1 1.3-1 1.5-1 1.4-.9 1.4-.9 1.5-.9 1.5-.9 1.5-.9 1.5-.8 1.6-.8 1.6-.7 1.6-.4.8-.4.9-.4.9-.4.8-.3.9-.4.9-.3.8-.3.9-.4.9-.3.9-.3.8-.3.9-.2.9-.3.9-.3.9-.2.8-.2.9-.3.9-.2.9-.2.9-.2.9-.2.8-.1.9-.2.9-.2.9-.1.9-.1.9-.2.9-.1.9-.1.9-.1.9-.1.9v.9l-.1.9-.1.9v1.7l-.1.9v3.6l.1.9v.9l.1 1v.9l.1.9.1.9.1.9.1.9.1.9.1.9.1.9.2.9.1.9.2.9.2.9.2.9.1.9.2.9.3 1 .2.9.2.9.3.9.2.9.3.9.3.9.3.9.3.9.3 1 .5 1.4.5 1.5.6 1.4.5 1.5.6 1.4.6 1.4.6 1.4.5 1.4.6 1.4.7 1.4.6 1.4.6 1.4.6 1.4.7 1.3.7 1.4.6 1.3.7 1.4.7 1.3.7 1.3.7 1.3.7 1.3.7 1.3.8 1.3.7 1.3.8 1.3.7 1.3.8 1.2.8 1.3.8 1.2.8 1.3.8 1.2.8 1.2.9 1.2.8 1.2.8 1.2.9 1.2.9 1.2.8 1.2.9 1.2.9 1.1.9 1.2.9 1.1 1 1.2.9 1.1.9 1.1 1 1.2.9 1.1 1 1.1 1 1.1 1 1.1 1 1.1 1 1 1 1.1 1 1.1 1 1 1.1 1.1 1 1 1.1 1 1 1.1 1.1 1 1.1 1 1.1 1 1.1 1 1.1 1 1.1 1 1.1 1 1.1.9 1.2 1 1.1.9"/><path d="M1.6 3.4V3v1.5l-.1.6-.2.4V7l-.1.5v2.6l-.1.4v1.1L1 12v.6l-.1.5v2.6l-.1.4v9.7l.1.5v2.5l.1.6v1l.1.5v1l.1.6v1l.1.5.1.5v1l.1.6v.5l.1.5.1.5v1l.2 1.1L2 41l.2 1 .1 1.2.1 1.2.2 1.1.2 1.1.1 1.1.3 1 .2 1.2.2 1.1.2 1 .3 1.1.1 1.1.3 1.1.3 1 .2 1.2.3 1 .4 1 .2 1.2.3 1 .3 1 .3 1.1.4 1 .3 1.1.4 1 .3 1.1.4 1 .4 1 .3 1.1.5 1 .3 1 .4 1 .4 1 .5 1 .4 1 .5 1 .4 1 .5 1 .4 1 .4 1 .6 1 .4 1 .6 1 .5 1 .5.8.5 1 .5 1 .6 1 .5 1 .6.8.5 1 .6 1 .6.9.6 1 .6.8.6 1 .6.9.7 1 .6.8.6 1 .7.9.6.8.6 1 .8.9.6 1 .6.8.7.9.8.9.6.8.9 1 .7 1 .8 1 .8.8.8 1 .7 1 .8.8.9.9.7 1 .9.8.8 1 .8.8.8.9.9.9.8.8.8 1 .9.8.9.8.8 1 .9.8.9.7.9.9.8.9 1 .8.8.8.9.8.9.8.9.8.9.8.9.8.9.8 1 .8.8.8 1 .7 1 .8.8.8 1 .7.9.7 1 .9.9.7 1 .7 1 .7.9.8 1 .7 1 .7 1 .7 1 .8 1 .7.9.7 1 .7 1 .6 1 .7 1 .7 1 .8 1 .6 1 .7 1 .7 1 .6 1 .7 1.1.7 1 .6 1 .7 1.1.6 1.1.7 1 .6 1.1.5 1 .7 1.1.6 1 .6 1.2.7 1.1.6 1.3.8 1.3.7 1.2.8 1.2.6 1.2.7 1.3.6 1.3.8 1.2.6 1.3.6 1.3.7 1.2.7 1.2.6 1.3.6 1.3.8 1.3.6 1.2.6 1.3.6 1.3.6 1.3.7 1.3.4 1.3.7 1.2.6 1.3.6 1.3.5 1.3.6 1.4.6 1.2.5 1.3.7 1.3.4 1.4.6 1.2.6 1.3.4 1.4.5 1.3.6 1.3.6 1.3.4 1.4.5 1.3.5 1.3.5 1.4.5 1.3.5 1.3.4 1.4.5 1.3.5 1.4.5 1.3.4 1.4.4 1.3.4 1.4.5 1.3.4 1.4.3 1.4.5 1.4.4 1.4.4 1.3.3 1.3.4 1.4.4 1.4.4 1.4.3 1.4.4 1.4.4 1.4.3 1.4.3 1.5.3 1.3.3 1.4.4 1.5.2 1.4.4 1.3.2 1.5.3 1.4.3 1.5.3 1.3.3 1.5.2 1.4.1 1.4.3 1.4.2 1.5.3 1.3.2 1.5.2 1.4.1 1.4.2 1.5.2 1.4.2 1.3.1 1.4.2 1.5.1 1.4.2h1.4l1.4.2h1.5l1.4.1 1.4.2h2.8l1.5.2h2.8l1.4.1h1.5l1.4.1h10l1.4-.1h1.4l1.5-.2h2.8l1.5-.2 1.4-.1 1.4-.1h1.5l1.4-.3h1.5l1.4-.2 1.4-.2h1.5l1.4-.2 1.4-.2 1.4-.2 1.4-.2 1.4-.2 1.5-.2 1.5-.2 1.4-.3 1.4-.1 1.5-.3 1.4-.3 1.4-.2 1.5-.3 1.4-.2 1.4-.3 1.4-.3 1.5-.3.6-.2.6-.1.6-.1.6-.1.5-.2.7-.1.6-.1.6-.2.6-.1.6-.1.6-.2.6-.1.6-.1.5-.2.7-.2.6-.1.6-.2h.6l.6-.2.6-.1.4-.2.6-.1.6-.2.6-.1.6-.2.6-.1.5-.2h.5l.6-.3h.6l.5-.2.6-.1.5-.2.5-.2h.5l.6-.2.5-.1.6-.2h.5l.4-.2.5-.2.6-.1.5-.2.5-.1.5-.1.4-.2h.6l.3-.2.5-.1h.5l.4-.2.5-.2h.5l.3-.2.4-.1.5-.2h.4l.4-.1.4-.2h.4l.3-.1.4-.2h.4l.4-.1.3-.1.4-.2h.3l.4-.1h.3l.3-.1 1.7-.7 1.7-.6 1.8-.6 1.7-.7 1.8-.6 1.7-.7 1.7-.6 1.6-.7 1.7-.6 1.7-.7 1.6-.7 1.6-.7 1.7-.6 1.6-.7 1.6-.7 1.6-.6 1.6-.7 1.5-.7 1.6-.6 1.6-.8 1.5-.6 1.6-.8 1.5-.7 1.6-.7 1.4-.7 1.6-.7 1.5-.8 1.5-.7 1.4-.8 1.5-.7 1.5-.7 1.4-.8 1.4-.7 1.4-.9 1.5-.7 1.4-.8 1.4-.8 1.4-.8 1.5-.8 1.3-.8 1.4-.8 1.4-.8 1.3-.8 1.4-.8 1.3-.9 1.3-.8 1.4-.9 1.3-.8 1.3-.9 1.4-.9 1.2-.9 1.3-.8 1.3-.9 1.3-.9 1.3-1 1.3-.8 1.2-1 1.3-1 1.2-.9 1.3-1 1.1-.9 1.3-1 1.2-.9 1.3-1 1.1-1 1.3-1 1.2-1 1.1-1 1.3-1 1.2-1 .2-.2.1-.2.2-.1.1-.2h.2l.2-.2.1-.2.2-.1.2-.2.1-.1.2-.1.2-.2.1-.1.2-.2.1-.1.2-.2.1-.2h.2l.2-.2.1-.1.2-.2.3-.2.1-.2.2-.1.1-.2h.2l.2-.2.1-.2.2-.1.1-.2.1-.1.2-.2.1-.1.2-.2.1-.1.2-.1.2-.2.1-.1.2-.2.1-.1.2-.2.2-.2.1-.1.2-.2.1-.1.2-.2.1-.2.2-.1.1-.2.2-.1.2-.1.2-.2.1-.1.2-.2v-.1l.2-.2.1-.1.2-.2.2-.2.1-.1.2-.2.1-.1.2-.2.1-.2.2-.1.1-.2.1-.1.2-.2.1-.1"/></g></svg>