<?xml version="1.0" encoding="UTF-8"?>
<svg width="581px" height="561px" viewBox="0 0 581 561" version="1.1" xmlns="http://www.w3.org/2000/svg" xmlns:xlink="http://www.w3.org/1999/xlink">
    <!-- Generator: Sketch 63.1 (92452) - https://sketch.com -->
    <title>spot</title>
    <desc>Created with Sketch.</desc>
    <g id="Page-1" stroke="none" stroke-width="1" fill="none" fill-rule="evenodd">
        <g id="spot" fill="#6AFDEF">
            <path d="M365.93,0 C414.502,0.355 453.277,7.143 486.141,33.44 C510.495,52.927 527.774,78.006 541.679,105.542 C565.097,151.912 579.971,200.52 580.974,252.983 C581.742,293.138 565.475,324.156 533.089,347.166 C513.913,360.791 494.404,373.955 475.406,387.821 C448.317,407.593 428.307,434.08 408.038,460.267 C389.016,484.842 370.25,509.555 346.869,530.43 C311.919,561.638 272.071,567.252 228.331,554.935 C180.694,541.522 139.528,516.117 101.123,485.788 C71.453,462.355 44.437,436.337 24.68,403.63 C4.09,369.543 -3.306,332.532 1.333,293.236 C10.297,217.297 40.102,150.14 89,91.638 C120.346,54.133 161.396,31.523 208.66,21.288 C240.143,14.47 272.244,10.295 304.208,5.973 C327.285,2.853 350.594,1.44 365.93,0 Z" id="Path"></path>
        </g>
    </g>
</svg>