<svg width="110" height="17" viewBox="0 0 110 17" fill="none" xmlns="http://www.w3.org/2000/svg">
<path d="M3.16499 12.075H15.359V9.542H3.16499V6.822H15.597V4.306H0.359985V16.427H3.16499V12.075Z" fill="#03363D"/>
<path d="M26.4518 13.792L27.7438 16.427H30.7868L24.5478 4.306H21.5388L15.4018 16.427H18.4788L19.7367 13.792H26.4518ZM23.0347 6.873L25.2957 11.48H20.8418L23.0347 6.873Z" fill="#03363D"/>
<path d="M33.889 16.427H36.796L42.729 4.306H39.652L35.453 13.299L31.611 4.306H28.5L33.889 16.427Z" fill="#03363D"/>
<path d="M44.0875 16.427H50.9215C53.6075 16.427 55.4265 16.019 56.3785 14.999C56.8545 14.506 57.0925 13.792 57.0925 12.908V12.84C57.0925 11.123 56.2425 10.443 54.2875 10.171C56.0215 9.848 56.7865 9.151 56.7865 7.587V7.485C56.7865 5.054 54.8315 4.306 50.8025 4.306H44.0875V16.427ZM46.8585 6.55H50.9725C52.4345 6.55 53.2675 6.618 53.6755 6.958C53.8795 7.145 53.9815 7.417 53.9815 7.808V7.876C53.9815 8.607 53.4715 8.913 52.6045 9.032C52.1455 9.083 51.6695 9.1 51.0745 9.1H46.8585V6.55ZM46.8585 11.31H50.7685C52.5535 11.31 53.4885 11.395 53.8795 11.786C54.0835 11.973 54.1855 12.262 54.1855 12.653V12.721C54.1855 13.435 53.8795 13.792 52.8255 13.928C52.2985 14.013 51.5675 14.047 50.5645 14.047H46.8585V11.31Z" fill="#03363D"/>
<path d="M65.8253 16.767C68.6814 16.767 70.9253 15.866 72.1493 14.013C72.7953 13.078 73.0843 11.922 73.0843 10.511V10.392C73.0843 7.638 71.7583 5.734 69.5483 4.748C68.4263 4.255 67.2194 4 65.8083 4C63.0033 4 60.7763 5.02 59.5183 6.941C58.9063 7.893 58.5833 9.049 58.5833 10.409V10.494C58.5833 13.418 59.8243 15.22 62.0173 16.104C63.1053 16.563 64.3633 16.767 65.8253 16.767ZM65.8083 14.183C63.1223 14.183 61.5243 13.027 61.5243 10.477V10.46C61.5243 7.689 63.1223 6.567 65.8253 6.567C67.6273 6.567 68.9023 7.043 69.6163 8.182C69.9733 8.777 70.1433 9.525 70.1433 10.477V10.494C70.1433 12.313 69.4123 13.367 68.1203 13.826C67.4743 14.081 66.7263 14.183 65.8083 14.183Z" fill="#03363D"/>
<path d="M80.439 11.82L84.315 16.427H87.868L82.258 9.967L87.46 4.306H83.873L80.473 8.318L77.056 4.306H73.503L78.603 9.984L72.789 16.427H76.444L80.439 11.82Z" fill="#03363D"/>
<rect x="90" width="20" height="9" fill="#2E5AF6"/>
<path d="M92 7.00001H92.8295V6.32103H92.9006C93.054 6.59944 93.3665 7.08523 94.1619 7.08523C95.2188 7.08523 95.9858 6.23864 95.9858 4.82671C95.9858 3.41194 95.2074 2.57955 94.1534 2.57955C93.3438 2.57955 93.0511 3.07387 92.9006 3.34376H92.8494V1.18182H92V7.00001ZM92.8324 4.81819C92.8324 3.90626 93.2301 3.30114 93.9716 3.30114C94.7415 3.30114 95.1278 3.95171 95.1278 4.81819C95.1278 5.69319 94.7301 6.3608 93.9716 6.3608C93.2415 6.3608 92.8324 5.7358 92.8324 4.81819Z" fill="white"/>
<path d="M98.9003 7.08807C99.852 7.08807 100.525 6.61932 100.718 5.9091L99.9145 5.76421C99.7611 6.17614 99.3918 6.38637 98.9088 6.38637C98.1816 6.38637 97.6929 5.91478 97.6702 5.07387H100.772V4.77273C100.772 3.19603 99.8293 2.57955 98.8407 2.57955C97.6247 2.57955 96.8236 3.50569 96.8236 4.8466C96.8236 6.20171 97.6134 7.08807 98.9003 7.08807ZM97.673 4.43751C97.7071 3.81819 98.156 3.28126 98.8463 3.28126C99.5054 3.28126 99.9372 3.76989 99.9401 4.43751H97.673Z" fill="white"/>
<path d="M103.832 2.63637H102.937V1.59091H102.088V2.63637H101.448V3.31819H102.088V5.89489C102.085 6.68751 102.69 7.07103 103.36 7.05682C103.63 7.05398 103.812 7.00285 103.911 6.96591L103.758 6.26421C103.701 6.27557 103.596 6.30114 103.46 6.30114C103.184 6.30114 102.937 6.21023 102.937 5.71876V3.31819H103.832V2.63637Z" fill="white"/>
<path d="M106.121 7.0966C106.843 7.0966 107.249 6.73012 107.411 6.40341H107.445V7.00001H108.275V4.10228C108.275 2.83239 107.275 2.57955 106.582 2.57955C105.792 2.57955 105.065 2.89773 104.78 3.69319L105.579 3.87501C105.704 3.56535 106.022 3.26705 106.593 3.26705C107.141 3.26705 107.423 3.55398 107.423 4.0483V4.06819C107.423 4.37785 107.104 4.37216 106.32 4.46307C105.494 4.55966 104.647 4.77557 104.647 5.76705C104.647 6.62501 105.292 7.0966 106.121 7.0966ZM106.306 6.41478C105.826 6.41478 105.479 6.19887 105.479 5.77841C105.479 5.32387 105.883 5.16194 106.374 5.0966C106.65 5.05966 107.303 4.9858 107.425 4.86364V5.42614C107.425 5.94319 107.013 6.41478 106.306 6.41478Z" fill="white"/>
</svg>
