<svg width="88" height="13" viewBox="0 0 88 13" fill="none" xmlns="http://www.w3.org/2000/svg">
<path d="M3.16499 8.075H15.359V5.542H3.16499V2.822H15.597V0.305999H0.359985V12.427H3.16499V8.075Z" fill="#03363D"/>
<path d="M26.4518 9.792L27.7438 12.427H30.7868L24.5478 0.305999H21.5388L15.4018 12.427H18.4788L19.7367 9.792H26.4518ZM23.0347 2.873L25.2957 7.48H20.8418L23.0347 2.873Z" fill="#03363D"/>
<path d="M33.889 12.427H36.796L42.729 0.305999H39.652L35.453 9.299L31.611 0.305999H28.5L33.889 12.427Z" fill="#03363D"/>
<path d="M44.0875 12.427H50.9215C53.6075 12.427 55.4265 12.019 56.3785 10.999C56.8545 10.506 57.0925 9.792 57.0925 8.908V8.84C57.0925 7.123 56.2425 6.443 54.2875 6.171C56.0215 5.848 56.7865 5.151 56.7865 3.587V3.485C56.7865 1.054 54.8315 0.305999 50.8025 0.305999H44.0875V12.427ZM46.8585 2.55H50.9725C52.4345 2.55 53.2675 2.618 53.6755 2.958C53.8795 3.145 53.9815 3.417 53.9815 3.808V3.876C53.9815 4.607 53.4715 4.913 52.6045 5.032C52.1455 5.083 51.6695 5.1 51.0745 5.1H46.8585V2.55ZM46.8585 7.31H50.7685C52.5535 7.31 53.4885 7.395 53.8795 7.786C54.0835 7.973 54.1855 8.262 54.1855 8.653V8.721C54.1855 9.435 53.8795 9.792 52.8255 9.928C52.2985 10.013 51.5675 10.047 50.5645 10.047H46.8585V7.31Z" fill="#03363D"/>
<path d="M65.8253 12.767C68.6813 12.767 70.9253 11.866 72.1493 10.013C72.7953 9.078 73.0843 7.922 73.0843 6.511V6.392C73.0843 3.638 71.7583 1.734 69.5483 0.747999C68.4263 0.255 67.2193 0 65.8083 0C63.0033 0 60.7763 1.02 59.5183 2.941C58.9063 3.893 58.5833 5.049 58.5833 6.409V6.494C58.5833 9.418 59.8243 11.22 62.0173 12.104C63.1053 12.563 64.3633 12.767 65.8253 12.767ZM65.8083 10.183C63.1223 10.183 61.5243 9.027 61.5243 6.477V6.46C61.5243 3.689 63.1223 2.567 65.8253 2.567C67.6273 2.567 68.9023 3.043 69.6163 4.182C69.9733 4.777 70.1433 5.525 70.1433 6.477V6.494C70.1433 8.313 69.4123 9.367 68.1203 9.826C67.4743 10.081 66.7263 10.183 65.8083 10.183Z" fill="#03363D"/>
<path d="M80.439 7.82L84.315 12.427H87.868L82.258 5.967L87.46 0.305999H83.873L80.473 4.318L77.056 0.305999H73.503L78.603 5.984L72.789 12.427H76.444L80.439 7.82Z" fill="#03363D"/>
</svg>
