<svg width="24" height="24" viewBox="0 0 24 24" fill="none" xmlns="http://www.w3.org/2000/svg">
<path d="M18.5443 16.3731C19.6147 14.8746 20.2263 13.0703 20.2263 11.1132C20.2263 6.09786 16.1284 2 11.1131 2C6.09786 2 2 6.09786 2 11.1132C2 16.1284 6.09786 20.2263 11.1131 20.2263C13.0703 20.2263 14.8746 19.6147 16.3731 18.5443L19.8287 22L22 19.8287L18.5443 16.3731ZM5.08869 11.1132C5.08869 7.74924 7.77982 5.0581 11.1437 5.0581C14.5076 5.0581 17.1682 7.74924 17.1682 11.1132C17.1682 14.4771 14.4771 17.1376 11.1437 17.1376C7.8104 17.1376 5.08869 14.4465 5.08869 11.1132Z" fill="#02272C"/>
</svg>
