<svg width="506" height="244" xmlns="http://www.w3.org/2000/svg"><path d="M-14.082-72.387l-.011-.588.011.588.012.588.014.588.015.59.017.589.018.59.02.59.02.591.023.591.024.592.025.593.027.593.028.594.03.594.031.594.033.595.034.596.036.596.038.597.039.597.04.598.042.598.044.599.046.6.047.6.048.6.05.6.053.602.054.602.055.603.057.603.059.603.06.605.063.604.064.606.065.606.068.606.07.607.07.607.073.609.075.608.077.61.078.61.08.61.082.61.084.612.086.612.088.612.09.613.09.614.094.614.095.615.098.616.099.616.101.616.103.618.106.617.107.619.109.619.111.619.114.62.115.62.117.622.12.622.121.622.124.623.126.624.127.624.13.625.132.625.281 1.385.292 1.382.301 1.38.313 1.379.322 1.376.333 1.374.344 1.372.354 1.37.364 1.367.374 1.366.384 1.364.395 1.361.405 1.36.415 1.358.425 1.356.435 1.353.445 1.352.455 1.35.465 1.348.475 1.345.485 1.344.494 1.342L-.33.76l.514 1.338.524 1.337.534 1.334.543 1.332.553 1.33.563 1.33.572 1.326.582 1.325.591 1.323.601 1.322.61 1.32.62 1.317.63 1.316.638 1.313.647 1.313.657 1.31.667 1.309.675 1.307.685 1.305.693 1.303.703 1.302.712 1.3.721 1.298.73 1.296.74 1.295.748 1.293.756 1.291.766 1.29.775 1.288.783 1.286.793 1.285.8 1.283.81 1.281.819 1.28.827 1.278.835 1.277.844 1.274.853 1.274.861 1.271.87 1.27.878 1.27.887 1.266.895 1.266.903 1.264.912 1.262.92 1.26.928 1.26 1.013 1.357 1.018 1.352 1.024 1.346 1.029 1.34 1.034 1.335 1.04 1.33 1.044 1.325 1.05 1.319 1.056 1.313 1.06 1.309 1.066 1.303 1.07 1.298 1.076 1.293 1.081 1.287 1.086 1.283 1.091 1.277 1.096 1.272 1.1 1.268 1.106 1.262 1.11 1.257 1.116 1.252 1.12 1.248 1.125 1.242 1.13 1.237 1.134 1.233 1.14 1.228 1.143 1.223 1.148 1.218 1.153 1.214 1.158 1.208 1.162 1.205 1.166 1.199 1.171 1.195 1.175 1.19 1.18 1.186 1.184 1.18 1.189 1.177 1.192 1.172 1.197 1.168 1.201 1.163 1.206 1.159 1.21 1.154 1.213 1.15 1.218 1.146 1.222 1.142 1.225 1.137 1.23 1.133 1.234 1.129 1.238 1.124 1.242 1.12 1.246 1.117 1.249 1.112 1.253 1.108 1.257 1.104 1.261 1.1 1.265 1.097 1.268 1.092 1.272 1.088 1.276 1.084 1.279 1.08 1.283 1.077 1.286 1.073 1.29 1.07 1.293 1.065 1.297 1.061 1.3 1.058 1.303 1.054 1.307 1.05 1.31 1.048 1.314 1.043 1.524 1.207 1.527 1.2 1.528 1.196 1.531 1.189 1.532 1.184 1.535 1.178 1.537 1.172 1.538 1.166 1.54 1.161 1.543 1.155 1.545 1.149 1.546 1.143 1.55 1.137 1.55 1.131 1.553 1.125 1.555 1.12 1.557 1.113 1.56 1.107 1.56 1.1 1.564 1.096 1.566 1.089 1.568 1.082 1.57 1.077 1.572 1.07 1.574 1.064 1.577 1.058 1.578 1.052 1.581 1.045 1.583 1.04 1.586 1.032 1.588 1.026 1.59 1.02 1.592 1.014 1.594 1.007 1.597 1 1.6.995 1.6.987 1.604.981 1.606.975 1.609.968 1.61.961 1.614.955 1.615.948 1.618.941 1.62.935 1.623.928 1.625.92 1.628.915 1.63.908 1.632.9 1.635.894 1.638.887 1.64.88 1.642.873 1.645.866 1.647.86 1.65.852 1.653.845 1.655.838 1.657.83 1.66.825 1.663.817 1.665.81 1.668.802 1.67.795 1.674.788 1.675.78 1.679.774 1.68.766 1.684.76 1.676.74 1.675.733 1.675.723 1.673.713 1.674.704 1.673.694 1.672.684 1.672.675 1.671.666 1.671.655 1.67.647 1.67.636 1.67.627 1.668.617 1.668.608 1.667.598 1.667.589 1.666.578 1.665.57 1.665.559 1.665.55 1.664.54 1.663.53 1.662.52 1.662.51 1.662.502 1.66.491 1.66.482 1.66.471 1.658.462 1.658.452 1.658.443 1.656.432 1.656.423 1.656.413 1.655.403 1.654.393 1.653.383 1.652.373 1.652.364 1.652.353 1.65.344 1.65.334 1.649.324 1.648.314 1.648.304 1.647.294 1.646.284 1.645.274 1.645.264 1.644.254 1.643.244 1.642.234 1.642.224 1.64.214 1.64.204 1.64.194 1.638.183 1.638.174 1.636.164 1.636.153 1.636.144 1.634.133 1.633.123 1.633.113 1.632.103 1.631.093 1.63.083 1.63.072 1.628.062.687.024.687.022.686.02.685.02.685.017.684.016.683.015.681.014.68.012.679.011.677.01.676.01.673.007.672.006.67.006.667.004.665.004.662.002.66.002h1.962l.649-.003.645-.002.641-.003.638-.005.634-.004.63-.006.627-.005.623-.007.618-.007.614-.007.61-.008.604-.009.6-.009.596-.009.59-.01.585-.009.58-.01.575-.01.57-.01.563-.011.558-.011.552-.011.546-.011.54-.011.533-.011.527-.01.52-.012.515-.01.507-.011.5-.01.493-.01.486-.01.479-.01.471-.01.464-.01.455-.008.449-.008.44-.008.432-.007.423-.007.416-.007.407-.005.398-.006.39-.004.38-.004.372-.003.362-.003.353-.001 1.963-.24 1.949-.245 1.936-.251 1.922-.258 1.91-.264 1.896-.271 1.884-.278 1.87-.284 1.859-.292 1.845-.298 1.833-.305 1.82-.312 1.808-.32 1.795-.327 1.783-.334 1.771-.342 1.76-.35 1.746-.357 1.736-.365 1.723-.373 1.712-.38 1.7-.39 1.688-.397 1.677-.405 1.666-.414 1.655-.422 1.643-.431 1.632-.44 1.621-.447 1.61-.457 1.6-.466 1.589-.475 1.578-.484 1.567-.493 1.557-.502 1.547-.512 1.536-.522 1.527-.53 1.516-.54 1.506-.551 1.496-.56 1.486-.57 1.476-.58 1.467-.59 1.457-.6 1.448-.611 1.438-.622 1.429-.631 1.42-.642 1.41-.653 1.401-.664 1.393-.674 1.383-.686 1.375-.696 1.366-.708 1.358-.72 1.348-.73 1.34-.741 1.333-.753 1.324-.765 1.315-.777 1.308-.788 1.3-.8 1.29-.813 1.284-.824 1.276-.836 1.269-.85 1.26-.86 1.254-.874 1.245-.886.18-.122.177-.122.178-.122.177-.123.177-.123.177-.124.176-.124.175-.124.175-.124.175-.125.174-.125.174-.125.173-.126.173-.126.172-.126.172-.127.172-.127.17-.127.171-.128.17-.127.17-.129.17-.128.169-.13.168-.128.168-.13.168-.13.167-.13.167-.13.166-.131.166-.131.165-.132.165-.132.165-.132.164-.132.164-.133.163-.133.163-.133.163-.134.162-.134.162-.135.16-.134.162-.135.16-.136.16-.135.16-.136.16-.137.158-.136.158-.137.158-.138.158-.137.157-.138.157-.138.157-.14.156-.138.155-.14.155-.139.155-.14.155-.14.154-.14.154-.141.153-.142.153-.141.152-.142.152-.142.152-.143.151-.143.151-.143.15-.143.151-.144" stroke="#262627" fill="none"/></svg>