<svg width="1115" height="550" xmlns="http://www.w3.org/2000/svg"><path d="M146.573 1.581l2.427.266-2.427-.266-2.425-.215-2.421-.166-2.418-.116-2.414-.066L134.486 1l-2.404.031-2.398.08-2.393.127-2.385.175-2.379.223-2.37.27-2.364.318-2.354.364-2.346.41-2.336.458-2.325.502-2.316.549-2.304.594-2.293.638-2.28.684-2.27.728-2.254.773-2.242.816-2.228.86-2.214.904-2.198.946-2.184.99-2.167 1.032-2.15 1.074-2.134 1.117-2.117 1.158-2.099 1.2-2.08 1.24-2.061 1.282-2.042 1.322-2.022 1.363-2.002 1.403-1.981 1.442-1.96 1.483-1.938 1.521-1.915 1.56-1.893 1.6-1.87 1.637-1.845 1.675-1.821 1.714-1.797 1.75-1.771 1.789-1.746 1.825-1.72 1.862-1.692 1.899-1.665 1.934-1.638 1.97-1.61 2.007-1.58 2.042-1.552 2.076-1.522 2.112-1.492 2.145-1.46 2.18-1.43 2.215-1.4 2.247-1.365 2.282-1.334 2.314-1.3 2.347-1.267 2.38-1.233 2.412-1.198 2.444-1.163 2.475-1.127 2.507-1.092 2.539-.564 1.373-.55 1.374-.535 1.375-.521 1.377-.508 1.377-.493 1.379-.478 1.38-.465 1.38-.45 1.381-.436 1.383-.422 1.383-.407 1.384-.394 1.385-.379 1.386-.364 1.387-.35 1.388-.336 1.389-.322 1.389-.307 1.39-.293 1.39-.279 1.392-.264 1.392-.25 1.393-.235 1.393-.22 1.394-.207 1.395-.192 1.395-.178 1.395-.163 1.397-.149 1.396-.134 1.397-.12 1.398-.104 1.398-.091 1.398-.076 1.4-.062 1.398-.047 1.4-.032 1.4-.018 1.4-.003 1.4.011 1.4.026 1.402.041 1.4.055 1.402.07 1.401.085 1.402.099 1.401.114 1.402.128 1.402.144 1.401.158 1.402.172 1.402.188 1.402.202 1.401.217 1.402.232 1.401.246 1.402.262 1.401.276 1.401.29 1.4.306 1.402.321 1.4.335 1.4.35 1.4.366 1.4.38 1.399.395 1.399.41 1.398.425 1.398.44 1.398.742 2.242.757 2.228.771 2.216.785 2.202.799 2.19.812 2.176.826 2.164.84 2.151.854 2.138.868 2.126.88 2.112.896 2.1.908 2.087.923 2.074.935 2.062.95 2.049.963 2.036.976 2.024.99 2.01 1.003 1.999 1.017 1.986 1.03 1.973 1.044 1.961 1.057 1.948 1.07 1.936 1.085 1.924 1.097 1.91 1.11 1.9 1.123 1.886 1.137 1.874 1.15 1.861 1.163 1.85 1.177 1.836 1.19 1.825 1.202 1.813 1.215 1.8 1.229 1.788 1.241 1.776 1.255 1.764 1.268 1.752 1.28 1.74 1.294 1.727 1.306 1.715 1.32 1.704 1.331 1.691 1.345 1.68 1.358 1.667 1.37 1.656 1.384 1.644 1.396 1.631 1.408 1.62 1.422 1.608 1.433 1.597 1.447 1.584 1.46 1.573 1.47 1.561 1.485 1.55 1.497 1.537 1.509 1.526 1.522 1.514 1.534 1.503 1.546 1.49 1.56 1.48 1.57 1.468 1.584 1.456 1.596 1.445 1.609 1.434 1.62 1.422 1.633 1.41M320.185 19.038l.39-.874-.39.874-.388.876-.386.877-.383.877-.381.879-.38.88-.376.88-.374.882-.371.882-.37.884-.367.884-.364.886-.362.886-.36.888-.356.888-.355.89-.352.89-.349.892-.347.892-.344.894-.341.895-.339.895-.336.897-.334.898-.33.899-.328.9-.326.9-.322.903-.32.903-.317.904-.314.905-.31.906-.31.908-.305.908-.302.91-.3.91-.296.912-.294.913-.29.914-.288.915-.285.916-.281.917-.279.919-.275.92-.272.92-.27.921-.265.923-.263.924-.26.926-.256.926-.253.927-.25.93-.247.929-.243.93-.24.933-.236.933-.234.935-.23.935-.226.937-.223.938-.22.94-.216.94-.212.941-.21.943-.205.944-.202.945-.199.947-.195.947-.191.95-.188.95-.437 2.1-.416 2.1-.395 2.099-.374 2.097-.352 2.095-.331 2.094-.31 2.092-.29 2.091-.268 2.09-.248 2.088-.227 2.087-.206 2.085-.185 2.084-.165 2.082-.145 2.081-.124 2.08-.103 2.078-.084 2.077-.063 2.076-.043 2.074-.023 2.073-.003 2.072.017 2.07.037 2.069.056 2.067.076 2.067.096 2.065.116 2.063.135 2.063.154 2.06.174 2.06.193 2.06.213 2.057.231 2.056.25 2.055.27 2.053.289 2.053.308 2.051.326 2.05.345 2.049.364 2.047.382 2.047.4 2.045.42 2.044.438 2.043.456 2.042.474 2.04.493 2.04.51 2.039.53 2.037.546 2.036.565 2.035.582 2.034.6 2.033.618 2.032.636 2.03.653 2.03.671 2.029.688 2.027.706 2.027.722 2.025.74 2.025.758 2.023.774 2.022.791 2.022.808 2.02.825 2.02.842 2.018.859 2.018.875 2.016.967 2.175.981 2.167.995 2.16 1.01 2.154 1.023 2.145 1.036 2.139 1.051 2.131 1.064 2.124 1.078 2.117 1.091 2.11 1.105 2.104 1.118 2.096 1.131 2.09 1.145 2.081 1.158 2.076 1.17 2.069 1.184 2.062 1.196 2.055 1.21 2.048 1.221 2.042 1.235 2.035 1.247 2.029 1.26 2.022 1.271 2.015 1.285 2.01 1.296 2.002 1.309 1.996 1.32 1.99 1.333 1.983 1.344 1.977 1.357 1.971 1.368 1.965 1.38 1.958 1.391 1.953 1.403 1.946 1.414 1.94 1.426 1.934 1.437 1.928 1.448 1.923 1.46 1.916 1.47 1.91 1.481 1.905 1.492 1.898 1.503 1.893 1.514 1.887 1.524 1.882 1.535 1.876 1.545 1.87 1.556 1.864 1.566 1.86 1.576 1.853 1.586 1.848 1.597 1.842 1.606 1.838 1.617 1.831 1.626 1.827 1.636 1.821 1.645 1.816 1.656 1.81 1.664 1.806 1.675 1.8 1.683 1.796 1.693 1.79 1.702 1.785 1.711 1.78 1.72 1.775 1.73 1.77 1.738 1.766 1.746 1.76 1.756 1.756 2.041 2.031 2.05 2.023 2.056 2.015 2.064 2.007 2.072 1.998 2.08 1.99 2.087 1.983 2.096 1.974 2.103 1.965 2.111 1.957 2.12 1.949 2.127 1.94 2.135 1.932 2.144 1.923 2.151 1.915 2.16 1.906 2.168 1.897 2.176 1.889 2.184 1.88 2.193 1.872 2.201 1.862 2.21 1.854 2.217 1.845 2.227 1.836 2.234 1.828 2.244 1.818 2.252 1.81 2.26 1.8 2.27 1.791 2.277 1.783 2.287 1.773 2.295 1.764 2.304 1.755 2.313 1.746 2.322 1.736 2.33 1.727 2.34 1.718 2.349 1.708 2.358 1.7 2.366 1.69 2.376 1.68 2.385 1.67 2.394 1.661 2.403 1.652 2.413 1.642 2.422 1.632 2.43 1.623 2.441 1.613 2.45 1.603 2.46 1.594 2.468 1.584 2.478 1.573 2.488 1.564 2.497 1.555 2.507 1.544 2.516 1.534 2.527 1.524 2.536 1.514 2.545 1.504 2.556 1.494 2.565 1.483 2.575 1.474 2.585 1.463 2.595 1.453 2.605 1.443 2.615 1.432 2.625 1.422 2.636 1.412 2.645 1.401 2.655 1.39 2.652 1.365 2.658 1.35 2.663 1.335 2.67 1.321 2.674 1.308 2.68 1.292 2.687 1.279 2.691 1.264 2.698 1.25 2.703 1.235 2.709 1.222 2.714 1.206 2.72 1.193 2.726 1.178 2.731 1.164 2.738 1.149 2.742 1.134 2.749 1.12 2.754 1.107 2.76 1.09 2.765 1.078 2.77 1.062 2.777 1.048 2.783 1.033 2.787 1.019 2.794 1.004 2.8.99 2.804.974 2.81.96 2.816.946 2.822.93 2.827.917 2.833.901 2.838.887 2.844.872 2.85.857 2.855.843 2.861.828 2.867.813 2.872.798 2.877.783 2.883.769 2.89.754 2.894.738 2.9.724 2.905.71 2.911.694 2.917.679 2.922.664 2.928.65 2.933.634 2.94.62 2.944.603 2.95.59 2.955.574 2.961.56 2.967.543 2.972.53 2.978.513 2.983.5 2.99.483 2.993.469 3 .453 3.006.438 3.01.423 3.017.408 3.022.393 3.028.377 3.033.362 3.038.347 1.284.142 1.284.14 1.285.138 1.284.135 1.283.133 1.283.131 1.281.129 1.28.127 1.28.124 1.276.123 1.275.12 1.272.12 1.27.116 1.266.114 1.264.113 1.26.111 1.256.109 1.252.107 1.248.106 1.243.103 1.238.102 1.233.1 1.228.099 1.223.097 1.216.095 1.21.094 1.203.092 1.197.09 1.19.09 1.183.087 1.175.086 1.167.085 1.159.083 1.15.082 1.143.08 1.133.08 1.124.078 1.115.077 1.105.076 1.094.074 1.085.074 1.074.072 1.064.071 1.052.07 1.04.07 1.03.067 1.017.067 1.006.066.993.065.98.065.967.063.954.063.94.062.927.06.913.061.898.06.884.058.869.059.854.057.838.057.823.057.807.056.79.055.775.055.757.055.74.054.724.053.705.054.688.053.67.052 3.881-.048 3.86-.06 3.84-.072 3.82-.082 3.798-.095 3.78-.107 3.759-.118 3.74-.13 3.72-.143 3.7-.155 3.683-.167 3.663-.18 3.645-.193 3.627-.205 3.61-.219 3.59-.231 3.574-.245 3.557-.258 3.54-.271 3.522-.285 3.506-.3 3.49-.312 3.474-.326 3.457-.34 3.443-.355 3.426-.37 3.412-.383 3.397-.398 3.381-.412 3.368-.428 3.353-.442 3.34-.458 3.325-.472 3.311-.488 3.299-.504 3.285-.519 3.273-.534 3.26-.55 3.247-.567 3.236-.583 3.223-.598 3.212-.615 3.2-.632 3.19-.648 3.177-.664 3.167-.682 3.157-.698 3.146-.716 3.137-.732 3.126-.75 3.117-.768 3.107-.784 3.099-.803 3.089-.82 3.08-.839 3.073-.856 3.064-.875 3.056-.893 3.048-.911 3.04-.93 3.034-.948 3.026-.968 3.02-.986 3.013-1.005 3.006-1.025 3-1.044 2.995-1.063 2.989-1.083 2.983-1.102 2.978-1.123.423-.153.423-.153.422-.155.422-.154.42-.156.421-.156.42-.156.419-.157.418-.158.418-.158.417-.158.416-.16.416-.16.416-.16.414-.16.414-.161.414-.162.413-.163.412-.163.412-.163.41-.164.411-.165.41-.165.41-.166.408-.166.408-.167.407-.167.407-.168.407-.169.405-.168.406-.17.404-.17.404-.17.404-.172.403-.172.402-.172.402-.173.401-.173.4-.174.4-.174.4-.175.4-.176.398-.176.398-.177.397-.177.397-.177.396-.179.396-.179.395-.179.395-.18.394-.18.393-.181.393-.182.393-.182.392-.182.391-.184.391-.183.39-.185.39-.184.39-.186.39-.186.387-.186.388-.187.388-.188.387-.188.386-.188.386-.19.385-.19.385-.19" stroke="#262627" fill="none"/></svg>