<?xml version="1.0" encoding="UTF-8"?>
<svg width="48px" height="46px" viewBox="0 0 48 46" version="1.1" xmlns="http://www.w3.org/2000/svg" xmlns:xlink="http://www.w3.org/1999/xlink">
    <!-- Generator: Sketch 63.1 (92452) - https://sketch.com -->
    <title>play</title>
    <desc>Created with Sketch.</desc>
    <g id="Resources" stroke="none" stroke-width="1" fill="none" fill-rule="evenodd">
        <g id="play" transform="translate(0.000000, -1.000000)">
            <g id="dot-bg">
                <rect id="Rectangle" x="0" y="0" width="48" height="48"></rect>
                <path d="M6.58150378,37.9532483 C3.7785599,34.6239195 1.8885963,31.5771748 0.805717117,28.0947524 C-0.417063598,24.2106876 -0.22259789,20.405256 1.21611217,16.6409015 C2.40605093,13.539257 4.156113,10.8082189 6.38858966,8.36211222 C8.64899491,5.85836723 11.2610935,3.86058738 14.3995683,2.54990296 C17.0152872,1.48163843 19.7450478,1.01635916 22.567128,1.00123236 C26.9007135,0.968240306 31.1287911,1.59704543 35.262351,2.96419451 C37.9347029,3.85054632 40.4297859,5.05416956 42.5611507,6.91124416 C44.6146776,8.68264374 45.9761961,10.8985885 46.8163811,13.4526691 C47.6464807,15.9780611 47.9610652,18.5829991 47.9986912,21.2180603 C48.0276542,25.2523498 47.5775643,29.241259 46.4848584,33.128323 C45.7113917,35.9115225 44.5911451,38.5241543 42.8255672,40.8431177 C41.153731,43.0179853 39.0130567,44.5340551 36.4630216,45.5157318 C33.7037808,46.5846483 30.820025,46.9740328 27.8736886,46.9994615 C24.4775208,47.0178484 21.1416064,46.5662614 17.8831421,45.510646 C14.6532529,44.4452504 11.7595411,42.7839113 9.2106698,40.5071986 C8.12481674,39.4973548 7.12455962,38.4581702 6.58150378,37.9532483 Z" id="Path" fill="#EBD195"></path>
            </g>
            <g transform="translate(18.000000, 11.000000)" fill="#FFFFFF" fill-rule="nonzero" id="Path">
                <polygon points="21.0933333 12 0.306666667 0 0.306666667 24"></polygon>
            </g>
        </g>
    </g>
</svg>