<?xml version="1.0" encoding="UTF-8"?>
<svg width="79px" height="77px" viewBox="0 0 79 77" version="1.1" xmlns="http://www.w3.org/2000/svg" xmlns:xlink="http://www.w3.org/1999/xlink">
    <!-- Generator: Sketch 63.1 (92452) - https://sketch.com -->
    <title>text</title>
    <desc>Created with Sketch.</desc>
    <g id="Page-1" stroke="none" stroke-width="1" fill="none" fill-rule="evenodd">
        <g id="Landing" transform="translate(-934.000000, -408.000000)" fill="#2E2E2E" fill-rule="nonzero">
            <g id="Group" transform="translate(934.000000, 408.000000)">
                <path d="M52.6594743,73.3940585 L50.7989086,68.5216111 L55.0514255,72.0210568 L57.200539,70.7874462 L57.6347894,64.5977536 L59.4953551,69.470201 L63.9757103,66.8984364 L60.2231063,57.0424675 L54.492137,60.3320959 L54.1157022,65.8913304 L50.2910451,62.7435607 L44.426515,66.1098541 L48.179119,75.965823 L52.6594743,73.3940585 Z M73.5007661,55.0188797 L71.2780618,53.0398321 L67.4078691,59.0565858 L66.7300407,58.4541203 L70.5244957,52.5551113 L68.3724382,50.6215062 L64.5779832,56.5205152 L63.9632279,55.9752668 L67.7955517,50.0173854 L65.5963963,48.0534854 L58.9920754,58.3208224 L66.8585764,65.345089 L73.5007661,55.0188797 Z M78.9473858,40.3769384 L76.7250828,41.7634265 C76.8462143,36.6885059 74.4948489,35.3529743 72.5740018,34.7873609 C72.2330061,34.6906246 71.7791412,34.5946315 71.4454687,34.5551522 C69.3878211,34.3116965 66.689099,35.0779098 65.9389924,41.4176887 L65.8583888,42.0989368 C65.0770278,48.7028731 67.6441033,50.3599777 69.8430108,50.9584905 C70.2118126,51.0585168 70.6256134,51.135672 70.9175769,51.1702164 C72.8083881,51.3939324 75.1619229,50.685561 76.1782093,46.2663613 L78.1824745,46.8418445 L78.9473858,40.3769384 Z M73.2570273,43.3126687 C73.0185066,45.3286071 72.0064004,45.8996423 71.1305099,45.7960091 C70.9636736,45.7762695 70.7829343,45.7548848 70.6349359,45.6950811 C69.7771401,45.4385147 68.90008,44.6298605 69.1583404,42.4470858 C69.401796,40.3894383 70.3689032,39.8412743 71.2169876,39.9416175 C71.3699209,39.9597121 71.5506602,39.9810968 71.7125616,40.0425455 C72.6259695,40.3056918 73.5119977,41.1577 73.2570273,43.3126687 Z M74.6757752,24.8345277 C72.283549,18.7950518 68.4055977,19.30714 66.1265969,19.7882172 L61.6724702,20.784518 L63.5903757,25.6265116 L67.7817293,24.68912 C68.9941708,24.4046314 70.3455611,24.5469696 71.1292214,26.5254187 L71.1395327,26.5514509 C71.969594,28.6470449 70.9584772,29.36377 69.7460358,29.6482586 L65.5546822,30.5856503 L67.4725877,35.4276439 L71.9267144,34.4313431 C74.2057153,33.950266 77.5423222,32.071486 74.9232469,25.4593011 L74.6757752,24.8345277 Z M61.8366141,7.05164565 L59.4979758,8.89224746 L64.7415403,13.7589452 L64.0293989,14.3204347 L58.8884481,9.5489757 L56.6069531,11.3280092 L61.7479038,16.0994683 L61.1031669,16.6089134 L55.9109093,11.789835 L53.5913187,13.6099141 L62.539241,21.914729 L70.8358432,15.4040799 L61.8366141,7.05164565 Z M51.2255903,2.17400974 C45.2640501,0.317245288 43.1495272,2.21008048 42.1527653,4.42172367 C42.0002602,4.77013464 41.8828148,5.10013854 41.7870624,5.40757223 C41.0376955,7.81357501 42.1265672,10.2495673 47.3930399,11.889848 L54.7848151,14.1920694 L59.4594665,4.73850953 L51.2255903,2.17400974 Z M51.0567003,5.49397242 L53.0617026,6.11844477 L51.2820307,9.7138741 L49.3304951,9.10605434 C46.9244924,8.35668752 46.8558896,7.35287795 47.0598839,6.69791052 C47.1056785,6.55087702 47.1648399,6.40800667 47.2673871,6.21999588 C47.5283571,5.75873384 48.3432638,4.64885317 51.0567003,5.49397242 Z M32.8461137,0.482116851 C26.2491615,1.76220363 25.5921671,4.77043673 25.62604,7.00286156 C25.6377366,7.35712021 25.6845116,7.81866121 25.7485159,8.14850882 C26.1432093,10.1825691 27.6948372,12.5197971 33.9619418,11.3037147 L34.6353806,11.1730392 C41.1636145,9.90628662 41.957636,6.94277014 41.860788,4.67978175 C41.8437578,4.2980358 41.7965733,3.9078799 41.7352358,3.59177594 C41.3218745,1.46151014 39.6079897,-0.829972101 33.5332962,0.348774477 L32.8461137,0.482116851 Z M33.5384648,3.75618189 C35.5312941,3.36948901 36.3834118,4.15963806 36.5514232,5.02548803 C36.5834253,5.19041183 36.6180944,5.36907929 36.6061987,5.52825998 C36.62303,6.42344528 36.1198599,7.50509952 33.9621068,7.92379457 C31.9280466,8.318488 31.1114168,7.56423621 30.9487391,6.72587354 C30.9194038,6.57469338 30.8847347,6.39602593 30.8939635,6.22310158 C30.8664649,5.27294169 31.408199,4.16954325 33.5384648,3.75618189 Z M12.6002494,10.036057 L13.9989043,12.6629959 L19.7151473,8.36133552 L20.1420433,9.16144541 L14.5376642,13.3789246 L15.8858104,15.9387453 L21.4901895,11.7212661 L21.8777631,12.4458395 L16.217452,16.7054093 L17.5992707,19.3099755 L27.3537988,11.969373 L22.4107094,2.65336384 L12.6002494,10.036057 Z M7.50857377,16.5732707 L11.7495799,19.706864 L5.04992037,21.3068296 L2.64934539,25.9285721 L11.1313577,32.1957586 L13.5254795,27.5864401 L9.66817174,24.7467985 L15.7324597,23.3374188 L18.3847079,18.2311388 L9.90269559,11.9639522 L7.50857377,16.5732707 Z M0.832824533,37.460083 C0.843929888,44.4740742 4.03696771,45.1270194 5.43732061,45.3488025 L5.61936472,45.3765143 L5.61103016,40.1125209 C5.35891965,40.04292 4.18232263,39.6667825 4.17862084,37.3287854 C4.17549538,35.3547879 4.98665204,34.8215029 5.92465087,34.8200177 C6.10665064,34.8197296 6.31669471,34.847397 6.55476091,34.8890202 C7.2549817,35.0279117 8.34773398,35.5021821 8.3514801,37.8681791 C8.35509322,40.1501763 7.26342709,40.361905 7.03942737,40.3622596 L7.04771759,45.5982531 L7.31378376,45.6398319 C8.61613679,45.8617701 11.6811798,45.2549164 11.6701927,38.2969251 L11.6694094,37.8209257 C11.6585479,30.9609343 8.75882257,29.8735242 6.77029307,29.5406722 C6.50422691,29.4990934 6.05616097,29.4578028 5.56616158,29.4585678 C3.1581646,29.4623912 0.822251172,30.7820914 0.832040025,36.9840836 L0.832824533,37.460083 Z M3.09151336,51.0188126 L4.52612849,51.0835538 L6.85148813,55.6023398 L5.90372516,56.4836804 L8.54938228,61.6248887 L16.196727,53.7218539 L12.8592273,47.2362134 L0.695688263,46.3630937 L3.09151336,51.0188126 Z M9.19297742,53.4212272 L8.06553032,51.2303007 L11.4107092,51.3667799 L9.19297742,53.4212272 Z M15.9754106,68.4871354 C20.6193139,71.8608222 22.5953453,71.4274865 23.8967131,70.0887177 C24.0345654,69.9466024 24.1857765,69.7622788 24.3585751,69.5244204 C25.4694232,67.9953303 24.9375439,66.5360591 21.963681,64.1506602 L20.6312077,63.0788231 C19.3811185,62.0841407 19.2440345,61.7249862 19.4579756,61.4304948 C19.6801452,61.1246767 20.0507255,61.1862417 21.0361391,61.9021216 C22.1234921,62.692058 21.9538908,63.1398921 21.7317211,63.4457101 L26.5681765,66.9592815 C27.4816397,65.8924502 28.3082572,64.0876556 23.4718018,60.5740842 L22.0673042,59.5537497 C18.3295284,56.8383433 16.3262831,56.4039928 14.9198779,57.6491499 C14.7789275,57.7717101 14.5721492,57.984883 14.4487216,58.1547819 C13.5024436,59.4573402 13.4240503,61.1135257 16.3958808,63.5493613 L17.7314522,64.6407535 C19.036142,65.7270153 19.0661563,66.0429949 18.8193012,66.3827927 C18.6218171,66.654631 18.1679852,66.8267606 17.0806322,66.0368242 C15.9026665,65.1810597 16.2410018,64.5962407 16.5043139,64.2337898 L11.5772458,60.6543904 C10.6760758,61.6090215 9.50792576,63.7886595 14.5256066,67.4338869 L15.9754106,68.4871354 Z M28.2638248,74.6113496 L29.1534075,73.4839834 L34.1800816,74.2318278 L34.3429155,75.5157675 L40.061969,76.3666209 L38.1051491,65.5448513 L30.8905562,64.4714988 L23.0848272,73.8408432 L28.2638248,74.6113496 Z M33.7747703,71.0576277 L31.337595,70.6950364 L33.4001272,68.0578393 L33.7747703,71.0576277 Z" id="text"></path>
            </g>
        </g>
    </g>
</svg>